<mxfile host="app.diagrams.net" modified="2023-12-10T17:18:54.079Z" agent="Mozilla/5.0 (X11; Linux x86_64) AppleWebKit/537.36 (KHTML, like Gecko) Chrome/119.0.0.0 Safari/537.36" etag="4SNbC-Vd2KwdNz0Ppdbo" version="22.1.7" type="github">
  <diagram id="C5RBs43oDa-KdzZeNtuy" name="Page-1">
    <mxGraphModel dx="784" dy="993" grid="1" gridSize="10" guides="1" tooltips="1" connect="1" arrows="1" fold="1" page="1" pageScale="1" pageWidth="1169" pageHeight="1654" math="0" shadow="0">
      <root>
        <mxCell id="WIyWlLk6GJQsqaUBKTNV-0" />
        <mxCell id="WIyWlLk6GJQsqaUBKTNV-1" parent="WIyWlLk6GJQsqaUBKTNV-0" />
        <mxCell id="zkfFHV4jXpPFQw0GAbJ--0" value="Онлайн-сервис распространения игр" style="swimlane;fontStyle=0;align=center;verticalAlign=top;childLayout=stackLayout;horizontal=1;startSize=26;horizontalStack=0;resizeParent=1;resizeLast=0;collapsible=1;marginBottom=0;rounded=0;shadow=0;strokeWidth=1;fontSize=11;" parent="WIyWlLk6GJQsqaUBKTNV-1" vertex="1">
          <mxGeometry x="90" y="30" width="230" height="104" as="geometry">
            <mxRectangle x="230" y="140" width="160" height="26" as="alternateBounds" />
          </mxGeometry>
        </mxCell>
        <mxCell id="zkfFHV4jXpPFQw0GAbJ--2" value="ID сервиса &lt;PK&gt;" style="text;align=left;verticalAlign=top;spacingLeft=4;spacingRight=4;overflow=hidden;rotatable=0;points=[[0,0.5],[1,0.5]];portConstraint=eastwest;rounded=0;shadow=0;html=0;fontSize=11;" parent="zkfFHV4jXpPFQw0GAbJ--0" vertex="1">
          <mxGeometry y="26" width="230" height="26" as="geometry" />
        </mxCell>
        <mxCell id="zkfFHV4jXpPFQw0GAbJ--3" value="Название" style="text;align=left;verticalAlign=top;spacingLeft=4;spacingRight=4;overflow=hidden;rotatable=0;points=[[0,0.5],[1,0.5]];portConstraint=eastwest;rounded=0;shadow=0;html=0;fontSize=11;" parent="zkfFHV4jXpPFQw0GAbJ--0" vertex="1">
          <mxGeometry y="52" width="230" height="26" as="geometry" />
        </mxCell>
        <mxCell id="zkfFHV4jXpPFQw0GAbJ--5" value="Веб-адрес (ссылка на сервис)" style="text;align=left;verticalAlign=top;spacingLeft=4;spacingRight=4;overflow=hidden;rotatable=0;points=[[0,0.5],[1,0.5]];portConstraint=eastwest;fontSize=11;" parent="zkfFHV4jXpPFQw0GAbJ--0" vertex="1">
          <mxGeometry y="78" width="230" height="26" as="geometry" />
        </mxCell>
        <mxCell id="G1TzxYJmEAVzhf6MNtJ4-3" value="Игра" style="swimlane;fontStyle=0;align=center;verticalAlign=top;childLayout=stackLayout;horizontal=1;startSize=26;horizontalStack=0;resizeParent=1;resizeLast=0;collapsible=1;marginBottom=0;rounded=0;shadow=0;strokeWidth=1;fontSize=11;" vertex="1" parent="WIyWlLk6GJQsqaUBKTNV-1">
          <mxGeometry x="420" y="210" width="156" height="160" as="geometry">
            <mxRectangle x="230" y="140" width="160" height="26" as="alternateBounds" />
          </mxGeometry>
        </mxCell>
        <mxCell id="G1TzxYJmEAVzhf6MNtJ4-4" value="ID игры &lt;PK&gt;" style="text;align=left;verticalAlign=top;spacingLeft=4;spacingRight=4;overflow=hidden;rotatable=0;points=[[0,0.5],[1,0.5]];portConstraint=eastwest;rounded=0;shadow=0;html=0;fontSize=11;fontStyle=0" vertex="1" parent="G1TzxYJmEAVzhf6MNtJ4-3">
          <mxGeometry y="26" width="156" height="26" as="geometry" />
        </mxCell>
        <mxCell id="G1TzxYJmEAVzhf6MNtJ4-5" value="Название" style="text;align=left;verticalAlign=top;spacingLeft=4;spacingRight=4;overflow=hidden;rotatable=0;points=[[0,0.5],[1,0.5]];portConstraint=eastwest;rounded=0;shadow=0;html=0;fontSize=11;" vertex="1" parent="G1TzxYJmEAVzhf6MNtJ4-3">
          <mxGeometry y="52" width="156" height="26" as="geometry" />
        </mxCell>
        <mxCell id="G1TzxYJmEAVzhf6MNtJ4-6" value="Возрастной рейтинг&#xa;" style="text;align=left;verticalAlign=top;spacingLeft=4;spacingRight=4;overflow=hidden;rotatable=0;points=[[0,0.5],[1,0.5]];portConstraint=eastwest;fontSize=11;" vertex="1" parent="G1TzxYJmEAVzhf6MNtJ4-3">
          <mxGeometry y="78" width="156" height="26" as="geometry" />
        </mxCell>
        <mxCell id="G1TzxYJmEAVzhf6MNtJ4-7" value="Жанр&#xa;" style="text;align=left;verticalAlign=top;spacingLeft=4;spacingRight=4;overflow=hidden;rotatable=0;points=[[0,0.5],[1,0.5]];portConstraint=eastwest;fontSize=11;" vertex="1" parent="G1TzxYJmEAVzhf6MNtJ4-3">
          <mxGeometry y="104" width="156" height="26" as="geometry" />
        </mxCell>
        <mxCell id="G1TzxYJmEAVzhf6MNtJ4-8" value="Рейтинг пользователей&#xa;" style="text;align=left;verticalAlign=top;spacingLeft=4;spacingRight=4;overflow=hidden;rotatable=0;points=[[0,0.5],[1,0.5]];portConstraint=eastwest;fontSize=11;" vertex="1" parent="G1TzxYJmEAVzhf6MNtJ4-3">
          <mxGeometry y="130" width="156" height="26" as="geometry" />
        </mxCell>
        <mxCell id="G1TzxYJmEAVzhf6MNtJ4-10" value="Распространяемая игра" style="swimlane;fontStyle=0;align=center;verticalAlign=top;childLayout=stackLayout;horizontal=1;startSize=26;horizontalStack=0;resizeParent=1;resizeLast=0;collapsible=1;marginBottom=0;rounded=0;shadow=0;strokeWidth=1;fontSize=11;" vertex="1" parent="WIyWlLk6GJQsqaUBKTNV-1">
          <mxGeometry x="390" y="40" width="156" height="120" as="geometry">
            <mxRectangle x="230" y="140" width="160" height="26" as="alternateBounds" />
          </mxGeometry>
        </mxCell>
        <mxCell id="G1TzxYJmEAVzhf6MNtJ4-11" value="ID игры&lt;PK&gt;" style="text;align=left;verticalAlign=top;spacingLeft=4;spacingRight=4;overflow=hidden;rotatable=0;points=[[0,0.5],[1,0.5]];portConstraint=eastwest;rounded=0;shadow=0;html=0;fontSize=11;fontStyle=0" vertex="1" parent="G1TzxYJmEAVzhf6MNtJ4-10">
          <mxGeometry y="26" width="156" height="26" as="geometry" />
        </mxCell>
        <mxCell id="G1TzxYJmEAVzhf6MNtJ4-12" value="ID онлайн-сервиса&lt;FK&gt;" style="text;align=left;verticalAlign=top;spacingLeft=4;spacingRight=4;overflow=hidden;rotatable=0;points=[[0,0.5],[1,0.5]];portConstraint=eastwest;rounded=0;shadow=0;html=0;fontSize=11;" vertex="1" parent="G1TzxYJmEAVzhf6MNtJ4-10">
          <mxGeometry y="52" width="156" height="26" as="geometry" />
        </mxCell>
        <mxCell id="G1TzxYJmEAVzhf6MNtJ4-28" value="(ID игры &#xa;ID Онлайн-сервиса) &lt;PK&gt;" style="text;align=left;verticalAlign=top;spacingLeft=4;spacingRight=4;overflow=hidden;rotatable=0;points=[[0,0.5],[1,0.5]];portConstraint=eastwest;rounded=0;shadow=0;html=0;fontSize=11;fontStyle=1" vertex="1" parent="G1TzxYJmEAVzhf6MNtJ4-10">
          <mxGeometry y="78" width="156" height="26" as="geometry" />
        </mxCell>
        <mxCell id="G1TzxYJmEAVzhf6MNtJ4-16" value="Игровая студия-директор" style="swimlane;fontStyle=0;align=center;verticalAlign=top;childLayout=stackLayout;horizontal=1;startSize=26;horizontalStack=0;resizeParent=1;resizeLast=0;collapsible=1;marginBottom=0;rounded=0;shadow=0;strokeWidth=1;fontSize=11;" vertex="1" parent="WIyWlLk6GJQsqaUBKTNV-1">
          <mxGeometry x="750" y="630" width="230" height="190" as="geometry">
            <mxRectangle x="230" y="140" width="160" height="26" as="alternateBounds" />
          </mxGeometry>
        </mxCell>
        <mxCell id="G1TzxYJmEAVzhf6MNtJ4-17" value="ID студии &lt;PK&gt;" style="text;align=left;verticalAlign=top;spacingLeft=4;spacingRight=4;overflow=hidden;rotatable=0;points=[[0,0.5],[1,0.5]];portConstraint=eastwest;rounded=0;shadow=0;html=0;fontSize=11;fontStyle=1" vertex="1" parent="G1TzxYJmEAVzhf6MNtJ4-16">
          <mxGeometry y="26" width="230" height="26" as="geometry" />
        </mxCell>
        <mxCell id="G1TzxYJmEAVzhf6MNtJ4-18" value="Название" style="text;align=left;verticalAlign=top;spacingLeft=4;spacingRight=4;overflow=hidden;rotatable=0;points=[[0,0.5],[1,0.5]];portConstraint=eastwest;rounded=0;shadow=0;html=0;fontSize=11;" vertex="1" parent="G1TzxYJmEAVzhf6MNtJ4-16">
          <mxGeometry y="52" width="230" height="26" as="geometry" />
        </mxCell>
        <mxCell id="G1TzxYJmEAVzhf6MNtJ4-19" value="Количество сотрудников&#xa;" style="text;align=left;verticalAlign=top;spacingLeft=4;spacingRight=4;overflow=hidden;rotatable=0;points=[[0,0.5],[1,0.5]];portConstraint=eastwest;fontSize=11;" vertex="1" parent="G1TzxYJmEAVzhf6MNtJ4-16">
          <mxGeometry y="78" width="230" height="26" as="geometry" />
        </mxCell>
        <mxCell id="G1TzxYJmEAVzhf6MNtJ4-20" value="Страна" style="text;align=left;verticalAlign=top;spacingLeft=4;spacingRight=4;overflow=hidden;rotatable=0;points=[[0,0.5],[1,0.5]];portConstraint=eastwest;fontSize=11;" vertex="1" parent="G1TzxYJmEAVzhf6MNtJ4-16">
          <mxGeometry y="104" width="230" height="26" as="geometry" />
        </mxCell>
        <mxCell id="G1TzxYJmEAVzhf6MNtJ4-25" value="ID директора &lt;AK&gt;" style="text;align=left;verticalAlign=top;spacingLeft=4;spacingRight=4;overflow=hidden;rotatable=0;points=[[0,0.5],[1,0.5]];portConstraint=eastwest;rounded=0;shadow=0;html=0;fontSize=11;fontStyle=1" vertex="1" parent="G1TzxYJmEAVzhf6MNtJ4-16">
          <mxGeometry y="130" width="230" height="26" as="geometry" />
        </mxCell>
        <mxCell id="G1TzxYJmEAVzhf6MNtJ4-26" value="ФИО" style="text;align=left;verticalAlign=top;spacingLeft=4;spacingRight=4;overflow=hidden;rotatable=0;points=[[0,0.5],[1,0.5]];portConstraint=eastwest;rounded=0;shadow=0;html=0;fontSize=11;" vertex="1" parent="G1TzxYJmEAVzhf6MNtJ4-16">
          <mxGeometry y="156" width="230" height="26" as="geometry" />
        </mxCell>
        <mxCell id="G1TzxYJmEAVzhf6MNtJ4-30" style="edgeStyle=orthogonalEdgeStyle;rounded=0;orthogonalLoop=1;jettySize=auto;html=1;exitX=0.5;exitY=1;exitDx=0;exitDy=0;entryX=0.604;entryY=-0.01;entryDx=0;entryDy=0;entryPerimeter=0;" edge="1" parent="WIyWlLk6GJQsqaUBKTNV-1" source="G1TzxYJmEAVzhf6MNtJ4-10" target="G1TzxYJmEAVzhf6MNtJ4-3">
          <mxGeometry relative="1" as="geometry" />
        </mxCell>
        <mxCell id="G1TzxYJmEAVzhf6MNtJ4-31" style="edgeStyle=orthogonalEdgeStyle;rounded=0;orthogonalLoop=1;jettySize=auto;html=1;entryX=1.012;entryY=0.05;entryDx=0;entryDy=0;entryPerimeter=0;" edge="1" parent="WIyWlLk6GJQsqaUBKTNV-1" source="G1TzxYJmEAVzhf6MNtJ4-12" target="zkfFHV4jXpPFQw0GAbJ--3">
          <mxGeometry relative="1" as="geometry" />
        </mxCell>
        <mxCell id="G1TzxYJmEAVzhf6MNtJ4-38" value="Портированная игра" style="swimlane;fontStyle=0;align=center;verticalAlign=top;childLayout=stackLayout;horizontal=1;startSize=26;horizontalStack=0;resizeParent=1;resizeLast=0;collapsible=1;marginBottom=0;rounded=0;shadow=0;strokeWidth=1;fontSize=11;" vertex="1" parent="WIyWlLk6GJQsqaUBKTNV-1">
          <mxGeometry x="220" y="260" width="156" height="120" as="geometry">
            <mxRectangle x="230" y="140" width="160" height="26" as="alternateBounds" />
          </mxGeometry>
        </mxCell>
        <mxCell id="G1TzxYJmEAVzhf6MNtJ4-39" value="ID игры&lt;PK&gt;" style="text;align=left;verticalAlign=top;spacingLeft=4;spacingRight=4;overflow=hidden;rotatable=0;points=[[0,0.5],[1,0.5]];portConstraint=eastwest;rounded=0;shadow=0;html=0;fontSize=11;fontStyle=0" vertex="1" parent="G1TzxYJmEAVzhf6MNtJ4-38">
          <mxGeometry y="26" width="156" height="26" as="geometry" />
        </mxCell>
        <mxCell id="G1TzxYJmEAVzhf6MNtJ4-40" value="ID платформы &lt;FK&gt;" style="text;align=left;verticalAlign=top;spacingLeft=4;spacingRight=4;overflow=hidden;rotatable=0;points=[[0,0.5],[1,0.5]];portConstraint=eastwest;rounded=0;shadow=0;html=0;fontSize=11;" vertex="1" parent="G1TzxYJmEAVzhf6MNtJ4-38">
          <mxGeometry y="52" width="156" height="26" as="geometry" />
        </mxCell>
        <mxCell id="G1TzxYJmEAVzhf6MNtJ4-41" value="(ID игры &#xa;ID платформы) &lt;PK&gt;" style="text;align=left;verticalAlign=top;spacingLeft=4;spacingRight=4;overflow=hidden;rotatable=0;points=[[0,0.5],[1,0.5]];portConstraint=eastwest;rounded=0;shadow=0;html=0;fontSize=11;fontStyle=1" vertex="1" parent="G1TzxYJmEAVzhf6MNtJ4-38">
          <mxGeometry y="78" width="156" height="26" as="geometry" />
        </mxCell>
        <mxCell id="G1TzxYJmEAVzhf6MNtJ4-42" value="Платформа" style="swimlane;fontStyle=0;align=center;verticalAlign=top;childLayout=stackLayout;horizontal=1;startSize=26;horizontalStack=0;resizeParent=1;resizeLast=0;collapsible=1;marginBottom=0;rounded=0;shadow=0;strokeWidth=1;fontSize=11;" vertex="1" parent="WIyWlLk6GJQsqaUBKTNV-1">
          <mxGeometry x="20" y="250" width="156" height="110" as="geometry">
            <mxRectangle x="230" y="140" width="160" height="26" as="alternateBounds" />
          </mxGeometry>
        </mxCell>
        <mxCell id="G1TzxYJmEAVzhf6MNtJ4-43" value="ID платормы &lt;PK&gt;" style="text;align=left;verticalAlign=top;spacingLeft=4;spacingRight=4;overflow=hidden;rotatable=0;points=[[0,0.5],[1,0.5]];portConstraint=eastwest;rounded=0;shadow=0;html=0;fontSize=11;fontStyle=0" vertex="1" parent="G1TzxYJmEAVzhf6MNtJ4-42">
          <mxGeometry y="26" width="156" height="26" as="geometry" />
        </mxCell>
        <mxCell id="G1TzxYJmEAVzhf6MNtJ4-44" value="Название" style="text;align=left;verticalAlign=top;spacingLeft=4;spacingRight=4;overflow=hidden;rotatable=0;points=[[0,0.5],[1,0.5]];portConstraint=eastwest;rounded=0;shadow=0;html=0;fontSize=11;" vertex="1" parent="G1TzxYJmEAVzhf6MNtJ4-42">
          <mxGeometry y="52" width="156" height="26" as="geometry" />
        </mxCell>
        <mxCell id="G1TzxYJmEAVzhf6MNtJ4-45" value="Тип устройства" style="text;align=left;verticalAlign=top;spacingLeft=4;spacingRight=4;overflow=hidden;rotatable=0;points=[[0,0.5],[1,0.5]];portConstraint=eastwest;fontSize=11;" vertex="1" parent="G1TzxYJmEAVzhf6MNtJ4-42">
          <mxGeometry y="78" width="156" height="26" as="geometry" />
        </mxCell>
        <mxCell id="G1TzxYJmEAVzhf6MNtJ4-48" style="edgeStyle=orthogonalEdgeStyle;rounded=0;orthogonalLoop=1;jettySize=auto;html=1;entryX=0;entryY=0.5;entryDx=0;entryDy=0;" edge="1" parent="WIyWlLk6GJQsqaUBKTNV-1" source="G1TzxYJmEAVzhf6MNtJ4-40" target="G1TzxYJmEAVzhf6MNtJ4-6">
          <mxGeometry relative="1" as="geometry" />
        </mxCell>
        <mxCell id="G1TzxYJmEAVzhf6MNtJ4-51" style="edgeStyle=orthogonalEdgeStyle;rounded=0;orthogonalLoop=1;jettySize=auto;html=1;entryX=1;entryY=0.5;entryDx=0;entryDy=0;" edge="1" parent="WIyWlLk6GJQsqaUBKTNV-1" source="G1TzxYJmEAVzhf6MNtJ4-40" target="G1TzxYJmEAVzhf6MNtJ4-43">
          <mxGeometry relative="1" as="geometry" />
        </mxCell>
        <mxCell id="G1TzxYJmEAVzhf6MNtJ4-52" value="Ключ активации" style="swimlane;fontStyle=0;align=center;verticalAlign=top;childLayout=stackLayout;horizontal=1;startSize=26;horizontalStack=0;resizeParent=1;resizeLast=0;collapsible=1;marginBottom=0;rounded=0;shadow=0;strokeWidth=1;fontSize=11;" vertex="1" parent="WIyWlLk6GJQsqaUBKTNV-1">
          <mxGeometry x="140" y="410" width="156" height="130" as="geometry">
            <mxRectangle x="230" y="140" width="160" height="26" as="alternateBounds" />
          </mxGeometry>
        </mxCell>
        <mxCell id="G1TzxYJmEAVzhf6MNtJ4-53" value="ID ключа &lt;PK&gt;" style="text;align=left;verticalAlign=top;spacingLeft=4;spacingRight=4;overflow=hidden;rotatable=0;points=[[0,0.5],[1,0.5]];portConstraint=eastwest;rounded=0;shadow=0;html=0;fontSize=11;fontStyle=0" vertex="1" parent="G1TzxYJmEAVzhf6MNtJ4-52">
          <mxGeometry y="26" width="156" height="26" as="geometry" />
        </mxCell>
        <mxCell id="G1TzxYJmEAVzhf6MNtJ4-54" value="ID игры &lt;FK&gt;" style="text;align=left;verticalAlign=top;spacingLeft=4;spacingRight=4;overflow=hidden;rotatable=0;points=[[0,0.5],[1,0.5]];portConstraint=eastwest;rounded=0;shadow=0;html=0;fontSize=11;fontStyle=1" vertex="1" parent="G1TzxYJmEAVzhf6MNtJ4-52">
          <mxGeometry y="52" width="156" height="26" as="geometry" />
        </mxCell>
        <mxCell id="G1TzxYJmEAVzhf6MNtJ4-55" value="Название игры" style="text;align=left;verticalAlign=top;spacingLeft=4;spacingRight=4;overflow=hidden;rotatable=0;points=[[0,0.5],[1,0.5]];portConstraint=eastwest;fontSize=11;" vertex="1" parent="G1TzxYJmEAVzhf6MNtJ4-52">
          <mxGeometry y="78" width="156" height="26" as="geometry" />
        </mxCell>
        <mxCell id="G1TzxYJmEAVzhf6MNtJ4-56" value="Значение ключа" style="text;align=left;verticalAlign=top;spacingLeft=4;spacingRight=4;overflow=hidden;rotatable=0;points=[[0,0.5],[1,0.5]];portConstraint=eastwest;fontSize=11;" vertex="1" parent="G1TzxYJmEAVzhf6MNtJ4-52">
          <mxGeometry y="104" width="156" height="26" as="geometry" />
        </mxCell>
        <mxCell id="G1TzxYJmEAVzhf6MNtJ4-59" style="edgeStyle=orthogonalEdgeStyle;rounded=0;orthogonalLoop=1;jettySize=auto;html=1;" edge="1" parent="WIyWlLk6GJQsqaUBKTNV-1">
          <mxGeometry relative="1" as="geometry">
            <mxPoint x="440" y="371" as="targetPoint" />
            <mxPoint x="296" y="461.47" as="sourcePoint" />
          </mxGeometry>
        </mxCell>
        <mxCell id="G1TzxYJmEAVzhf6MNtJ4-60" value="Издатель" style="swimlane;fontStyle=0;align=center;verticalAlign=top;childLayout=stackLayout;horizontal=1;startSize=26;horizontalStack=0;resizeParent=1;resizeLast=0;collapsible=1;marginBottom=0;rounded=0;shadow=0;strokeWidth=1;fontSize=11;" vertex="1" parent="WIyWlLk6GJQsqaUBKTNV-1">
          <mxGeometry x="360" y="660" width="156" height="160" as="geometry">
            <mxRectangle x="230" y="140" width="160" height="26" as="alternateBounds" />
          </mxGeometry>
        </mxCell>
        <mxCell id="G1TzxYJmEAVzhf6MNtJ4-61" value="ID издателя &lt;PK&gt;" style="text;align=left;verticalAlign=top;spacingLeft=4;spacingRight=4;overflow=hidden;rotatable=0;points=[[0,0.5],[1,0.5]];portConstraint=eastwest;rounded=0;shadow=0;html=0;fontSize=11;fontStyle=0" vertex="1" parent="G1TzxYJmEAVzhf6MNtJ4-60">
          <mxGeometry y="26" width="156" height="26" as="geometry" />
        </mxCell>
        <mxCell id="G1TzxYJmEAVzhf6MNtJ4-62" value="Название" style="text;align=left;verticalAlign=top;spacingLeft=4;spacingRight=4;overflow=hidden;rotatable=0;points=[[0,0.5],[1,0.5]];portConstraint=eastwest;rounded=0;shadow=0;html=0;fontSize=11;" vertex="1" parent="G1TzxYJmEAVzhf6MNtJ4-60">
          <mxGeometry y="52" width="156" height="26" as="geometry" />
        </mxCell>
        <mxCell id="G1TzxYJmEAVzhf6MNtJ4-63" value="Капитализация" style="text;align=left;verticalAlign=top;spacingLeft=4;spacingRight=4;overflow=hidden;rotatable=0;points=[[0,0.5],[1,0.5]];portConstraint=eastwest;fontSize=11;" vertex="1" parent="G1TzxYJmEAVzhf6MNtJ4-60">
          <mxGeometry y="78" width="156" height="26" as="geometry" />
        </mxCell>
        <mxCell id="G1TzxYJmEAVzhf6MNtJ4-64" value="Страна" style="text;align=left;verticalAlign=top;spacingLeft=4;spacingRight=4;overflow=hidden;rotatable=0;points=[[0,0.5],[1,0.5]];portConstraint=eastwest;fontSize=11;" vertex="1" parent="G1TzxYJmEAVzhf6MNtJ4-60">
          <mxGeometry y="104" width="156" height="26" as="geometry" />
        </mxCell>
        <mxCell id="G1TzxYJmEAVzhf6MNtJ4-65" value="Рейтинг пользователей&#xa;" style="text;align=left;verticalAlign=top;spacingLeft=4;spacingRight=4;overflow=hidden;rotatable=0;points=[[0,0.5],[1,0.5]];portConstraint=eastwest;fontSize=11;" vertex="1" parent="G1TzxYJmEAVzhf6MNtJ4-60">
          <mxGeometry y="130" width="156" height="26" as="geometry" />
        </mxCell>
        <mxCell id="G1TzxYJmEAVzhf6MNtJ4-72" style="edgeStyle=orthogonalEdgeStyle;rounded=0;orthogonalLoop=1;jettySize=auto;html=1;" edge="1" parent="WIyWlLk6GJQsqaUBKTNV-1" source="G1TzxYJmEAVzhf6MNtJ4-66">
          <mxGeometry relative="1" as="geometry">
            <mxPoint x="490" y="370" as="targetPoint" />
          </mxGeometry>
        </mxCell>
        <mxCell id="G1TzxYJmEAVzhf6MNtJ4-66" value="Издатели и игры" style="swimlane;fontStyle=0;align=center;verticalAlign=top;childLayout=stackLayout;horizontal=1;startSize=26;horizontalStack=0;resizeParent=1;resizeLast=0;collapsible=1;marginBottom=0;rounded=0;shadow=0;strokeWidth=1;fontSize=11;" vertex="1" parent="WIyWlLk6GJQsqaUBKTNV-1">
          <mxGeometry x="395" y="490" width="190" height="80" as="geometry">
            <mxRectangle x="230" y="140" width="160" height="26" as="alternateBounds" />
          </mxGeometry>
        </mxCell>
        <mxCell id="G1TzxYJmEAVzhf6MNtJ4-67" value="ID издаваемой игры &lt;PK&gt; &lt;FK&gt;" style="text;align=left;verticalAlign=top;spacingLeft=4;spacingRight=4;overflow=hidden;rotatable=0;points=[[0,0.5],[1,0.5]];portConstraint=eastwest;rounded=0;shadow=0;html=0;fontSize=11;fontStyle=1" vertex="1" parent="G1TzxYJmEAVzhf6MNtJ4-66">
          <mxGeometry y="26" width="190" height="26" as="geometry" />
        </mxCell>
        <mxCell id="G1TzxYJmEAVzhf6MNtJ4-68" value="ID издателя &lt;FK&gt;" style="text;align=left;verticalAlign=top;spacingLeft=4;spacingRight=4;overflow=hidden;rotatable=0;points=[[0,0.5],[1,0.5]];portConstraint=eastwest;rounded=0;shadow=0;html=0;fontSize=11;" vertex="1" parent="G1TzxYJmEAVzhf6MNtJ4-66">
          <mxGeometry y="52" width="190" height="26" as="geometry" />
        </mxCell>
        <mxCell id="G1TzxYJmEAVzhf6MNtJ4-74" style="edgeStyle=orthogonalEdgeStyle;rounded=0;orthogonalLoop=1;jettySize=auto;html=1;exitX=0.5;exitY=1;exitDx=0;exitDy=0;entryX=0.541;entryY=0.015;entryDx=0;entryDy=0;entryPerimeter=0;" edge="1" parent="WIyWlLk6GJQsqaUBKTNV-1" source="G1TzxYJmEAVzhf6MNtJ4-66" target="G1TzxYJmEAVzhf6MNtJ4-60">
          <mxGeometry relative="1" as="geometry" />
        </mxCell>
      </root>
    </mxGraphModel>
  </diagram>
</mxfile>
